<?xml version="1.0" encoding="utf-8"?>
<!-- Generator: Adobe Illustrator 27.7.0, SVG Export Plug-In . SVG Version: 6.00 Build 0)  -->
<svg version="1.1" id="Layer_1" xmlns="http://www.w3.org/2000/svg" xmlns:xlink="http://www.w3.org/1999/xlink" x="0px" y="0px"
	 viewBox="0 0 107.9 80.3" style="enable-background:new 0 0 107.9 80.3;" xml:space="preserve">
<style type="text/css">
	.st0{clip-path:url(#SVGID_00000121968671919256730090000008467743309903489724_);fill:#D2AB67;}
	.st1{clip-path:url(#SVGID_00000121968671919256730090000008467743309903489724_);}
	.st2{clip-path:url(#SVGID_00000121968671919256730090000008467743309903489724_);fill:#EC008C;}
	
		.st3{clip-path:url(#SVGID_00000121968671919256730090000008467743309903489724_);fill-rule:evenodd;clip-rule:evenodd;fill:#D2AB67;}
</style>
<g>
	<g>
		<defs>
			<rect id="SVGID_1_" x="-17.1" y="-16.4" width="109.9" height="109.9"/>
		</defs>
		<clipPath id="SVGID_00000146481621766881831390000003124618255709569156_">
			<use xlink:href="#SVGID_1_"  style="overflow:visible;"/>
		</clipPath>
		<path style="clip-path:url(#SVGID_00000146481621766881831390000003124618255709569156_);fill:#D2AB67;" d="M72.1,63h-3.8V48.1
			c0-1.3-0.2-2.3-0.5-3.1c-0.4-0.8-1.2-1.2-2.5-1.2h-0.9V43h3.8c0.7,0,1.4,0.1,1.9,0.2c0.5,0.1,0.9,0.4,1.2,0.8
			c0.3,0.4,0.5,0.9,0.6,1.6c0.1,0.7,0.2,1.5,0.2,2.6V63z M45.9,34.9c2.8,0,5.3,0.3,7.4,1c2.1,0.7,3.8,1.6,5.2,2.8
			c1.4,1.2,2.4,2.7,3.1,4.4c0.7,1.7,1,3.6,1,5.8c0,2.1-0.3,4-1,5.7c-0.7,1.7-1.7,3.2-3,4.5c-1.3,1.3-2.9,2.2-4.9,2.9
			C51.9,62.7,49.6,63,47,63h-8.4V40c0-1.3-0.2-2.3-0.5-3.1c-0.4-0.8-1.2-1.2-2.5-1.2l-0.9-0.9H45.9z M42.5,61
			c1.7,0.4,3.1,0.6,4.4,0.6c1.6,0,3-0.3,4.4-0.9c1.4-0.6,2.5-1.4,3.5-2.5c1-1.1,1.8-2.4,2.3-4c0.6-1.6,0.9-3.3,0.9-5.2
			c0-1.9-0.3-3.6-0.8-5.1c-0.6-1.6-1.3-2.9-2.3-4c-1-1.1-2.2-2-3.6-2.6c-1.4-0.6-2.9-0.9-4.5-0.9c-0.6,0-1.3,0.1-2,0.2
			c-0.7,0.1-1.5,0.3-2.2,0.5V61z M31.4,63h-3.8V48.1c0-1.3-0.2-2.3-0.5-3.1c-0.4-0.8-1.2-1.2-2.5-1.2h-0.9V43h3.8
			c0.7,0,1.4,0.1,1.9,0.2c0.5,0.1,0.9,0.4,1.2,0.8c0.3,0.4,0.5,0.9,0.6,1.6c0.1,0.7,0.2,1.5,0.2,2.6V63z M22.1,55.9
			c0,1.2-0.2,2.3-0.6,3.2c-0.4,1-1,1.8-1.8,2.5c-0.8,0.7-1.7,1.2-2.8,1.6c-1.1,0.4-2.3,0.6-3.7,0.6c-1.2,0-2.3-0.1-3.5-0.4
			c-1.2-0.2-2.2-0.6-3.1-1c-0.9-0.5-1.7-1-2.3-1.6c-0.6-0.6-0.9-1.4-0.9-2.2V54h0.8c0.5,2.9,1.4,4.9,2.8,6.2
			c1.4,1.3,3.3,1.9,5.7,1.9c0.7,0,1.4-0.1,2.1-0.3c0.7-0.2,1.3-0.5,1.8-0.8c0.5-0.4,0.9-0.8,1.2-1.4c0.3-0.5,0.5-1.2,0.5-1.9
			c0-1.3-0.4-2.3-1.2-3.2c-0.8-0.9-2-1.8-3.5-2.7l-5.2-3.1c-1.8-1.1-3.1-2.2-3.9-3.3c-0.8-1.1-1.1-2.5-1.1-4.1c0-1.1,0.2-2.1,0.6-3
			c0.4-0.9,1-1.6,1.7-2.3c0.7-0.6,1.6-1.1,2.6-1.5c1-0.3,2.1-0.5,3.4-0.5c1.1,0,2.1,0.1,3.2,0.3c1.1,0.2,2.1,0.6,3,1
			c0.9,0.4,1.6,1,2.2,1.6c0.6,0.6,0.9,1.4,0.9,2.2v4.6h-0.8c-0.5-2.9-1.4-4.9-2.8-6.1c-1.4-1.2-3.3-1.8-5.7-1.8
			c-0.6,0-1.2,0.1-1.8,0.3c-0.6,0.2-1.1,0.5-1.6,0.9c-0.5,0.4-0.8,0.8-1.1,1.4c-0.3,0.5-0.4,1.1-0.4,1.8c0,0.6,0.1,1.2,0.3,1.7
			c0.2,0.5,0.5,0.9,0.9,1.4c0.4,0.4,0.9,0.8,1.5,1.3c0.6,0.4,1.3,0.8,2,1.3l5.2,3.1c0.9,0.5,1.7,1.1,2.4,1.6c0.7,0.5,1.2,1,1.6,1.6
			c0.4,0.6,0.7,1.1,1,1.8C22,54.4,22.1,55.1,22.1,55.9z"/>
		<path style="clip-path:url(#SVGID_00000146481621766881831390000003124618255709569156_);" d="M65.4,69.2h-0.8v-0.5h0.8v-1.1
			L66,67h0.5v1.8h1.4v0.5h-1.4v3.7c0,0.7,0.3,1.1,0.8,1.1c0.2,0,0.4,0,0.5-0.1c0.1,0,0.3-0.1,0.4-0.2l0.1,0.2
			c-0.1,0-0.1,0.1-0.2,0.2c-0.1,0.1-0.2,0.1-0.3,0.2c-0.1,0-0.3,0.1-0.4,0.1c-0.2,0-0.3,0-0.5,0c-0.4,0-0.8-0.1-1-0.4
			c-0.3-0.2-0.4-0.6-0.4-1.2V69.2z M63.9,72.9c0,0.3-0.1,0.5-0.2,0.7c-0.1,0.2-0.3,0.4-0.4,0.5c-0.2,0.1-0.4,0.2-0.7,0.3
			c-0.3,0.1-0.5,0.1-0.8,0.1c-0.5,0-0.9,0-1.2-0.1c-0.3-0.1-0.5-0.2-0.7-0.4c-0.1-0.1-0.2-0.3-0.3-0.5c0-0.2,0-0.4,0-0.7h0.2
			c0.1,0.4,0.2,0.7,0.5,0.9c0.3,0.2,0.7,0.3,1.2,0.3c0.5,0,0.8-0.1,1-0.2c0.2-0.2,0.3-0.4,0.3-0.6c0-0.2-0.1-0.4-0.3-0.6
			c-0.2-0.2-0.4-0.3-0.8-0.5l-0.7-0.3c-0.5-0.2-0.8-0.4-1.1-0.6c-0.2-0.2-0.4-0.6-0.4-1c0-0.3,0-0.5,0.1-0.7
			c0.1-0.2,0.2-0.4,0.4-0.5c0.2-0.1,0.4-0.2,0.6-0.3c0.2-0.1,0.5-0.1,0.8-0.1c0.5,0,0.8,0,1.1,0.1c0.3,0.1,0.5,0.2,0.7,0.3
			c0.2,0.2,0.2,0.3,0.3,0.5c0,0.2,0,0.4,0,0.7h-0.2c-0.1-0.4-0.2-0.7-0.5-0.9c-0.3-0.2-0.6-0.3-1.1-0.3c-0.4,0-0.7,0.1-0.9,0.2
			c-0.2,0.2-0.3,0.4-0.3,0.6c0,0.2,0.1,0.4,0.2,0.6c0.2,0.2,0.4,0.3,0.7,0.4l0.7,0.3c0.5,0.2,0.9,0.4,1.2,0.7
			C63.7,72.2,63.9,72.5,63.9,72.9z M57.4,71.3c0-0.7-0.1-1.2-0.3-1.6c-0.2-0.4-0.5-0.6-0.9-0.6c-0.2,0-0.3,0.1-0.5,0.2
			c-0.2,0.1-0.3,0.3-0.4,0.4c-0.1,0.2-0.2,0.4-0.3,0.7c-0.1,0.3-0.1,0.5-0.1,0.9H57.4z M58.5,71.7h-3.6c0,0.3,0,0.6,0.1,0.9
			c0.1,0.3,0.2,0.5,0.3,0.7c0.1,0.2,0.3,0.4,0.5,0.5c0.2,0.1,0.4,0.2,0.7,0.2c0.4,0,0.7-0.1,1-0.2c0.3-0.2,0.5-0.4,0.7-0.7l0.2,0.2
			c-0.3,0.5-0.6,0.8-0.9,1c-0.4,0.2-0.8,0.3-1.2,0.3c-0.4,0-0.8-0.1-1.1-0.2c-0.3-0.2-0.6-0.4-0.8-0.6c-0.2-0.3-0.4-0.6-0.5-0.9
			c-0.1-0.4-0.2-0.7-0.2-1.1c0-0.4,0.1-0.8,0.2-1.1c0.1-0.4,0.3-0.7,0.5-0.9c0.2-0.3,0.5-0.5,0.7-0.6c0.3-0.2,0.6-0.2,1-0.2
			c0.8,0,1.4,0.2,1.8,0.7c0.4,0.5,0.6,1.1,0.6,1.9L58.5,71.7z M47.9,67.9c0-0.4,0-0.6-0.1-0.9c-0.1-0.2-0.3-0.3-0.7-0.3h-0.2v-0.2
			h1.1c0.2,0,0.4,0,0.5,0.1c0.1,0,0.2,0.1,0.3,0.2c0.1,0.1,0.1,0.3,0.2,0.4c0,0.2,0,0.4,0,0.7V69c0.2-0.1,0.4-0.2,0.6-0.2
			c0.2-0.1,0.5-0.1,0.9-0.1c0.4,0,0.7,0.1,1,0.2c0.3,0.2,0.5,0.4,0.7,0.6c0.2,0.3,0.3,0.6,0.4,0.9c0.1,0.4,0.1,0.7,0.1,1.1
			c0,0.4,0,0.8-0.1,1.1c-0.1,0.4-0.2,0.7-0.4,0.9c-0.2,0.3-0.4,0.5-0.7,0.6c-0.3,0.2-0.6,0.2-0.9,0.2c-0.4,0-0.8-0.1-1-0.2
			c-0.3-0.1-0.4-0.3-0.6-0.4h-0.1l-0.4,0.5h-0.6V67.9z M49,73.3c0.1,0.2,0.3,0.3,0.5,0.5c0.2,0.1,0.5,0.2,0.8,0.2
			c0.2,0,0.4-0.1,0.6-0.2c0.2-0.1,0.3-0.3,0.4-0.5c0.1-0.2,0.2-0.5,0.2-0.8c0.1-0.3,0.1-0.6,0.1-1c0-0.3,0-0.7-0.1-1
			c-0.1-0.3-0.1-0.6-0.3-0.8c-0.1-0.2-0.3-0.4-0.5-0.5c-0.2-0.1-0.4-0.2-0.7-0.2c-0.2,0-0.4,0-0.6,0.1c-0.2,0.1-0.4,0.2-0.6,0.2
			V73.3z M42.5,71.3c0-0.7-0.1-1.2-0.3-1.6c-0.2-0.4-0.5-0.6-0.9-0.6c-0.2,0-0.3,0.1-0.5,0.2c-0.2,0.1-0.3,0.3-0.4,0.4
			c-0.1,0.2-0.2,0.4-0.3,0.7C40,70.7,40,71,40,71.3H42.5z M43.6,71.7H40c0,0.3,0,0.6,0.1,0.9c0.1,0.3,0.2,0.5,0.3,0.7
			c0.1,0.2,0.3,0.4,0.5,0.5c0.2,0.1,0.4,0.2,0.7,0.2c0.4,0,0.7-0.1,1-0.2c0.3-0.2,0.5-0.4,0.7-0.7l0.2,0.2c-0.3,0.5-0.6,0.8-0.9,1
			c-0.4,0.2-0.8,0.3-1.2,0.3c-0.4,0-0.8-0.1-1.1-0.2c-0.3-0.2-0.6-0.4-0.8-0.6c-0.2-0.3-0.4-0.6-0.5-0.9c-0.1-0.4-0.2-0.7-0.2-1.1
			c0-0.4,0.1-0.8,0.2-1.1c0.1-0.4,0.3-0.7,0.5-0.9c0.2-0.3,0.5-0.5,0.7-0.6c0.3-0.2,0.6-0.2,1-0.2c0.8,0,1.4,0.2,1.8,0.7
			c0.4,0.5,0.6,1.1,0.6,1.9L43.6,71.7z M34,69.2c0.2-0.2,0.4-0.3,0.6-0.4c0.3-0.1,0.6-0.2,0.9-0.2c0.3,0,0.5,0,0.7,0.1
			c0.2,0.1,0.5,0.2,0.6,0.3c0.2,0.2,0.3,0.4,0.5,0.7c0.1,0.3,0.2,0.6,0.2,1.1v3.6h-1.1v-3.6c0-0.3,0-0.5-0.1-0.7
			c-0.1-0.2-0.2-0.4-0.3-0.5c-0.1-0.1-0.3-0.2-0.4-0.3c-0.2-0.1-0.3-0.1-0.5-0.1c-0.2,0-0.5,0.1-0.7,0.2c-0.2,0.1-0.4,0.3-0.5,0.4
			v4.5h-1.1v-6.4c0-0.4,0-0.6-0.1-0.9c-0.1-0.2-0.3-0.3-0.7-0.3h-0.2v-0.2h1.1c0.2,0,0.4,0,0.5,0.1c0.1,0,0.2,0.1,0.3,0.2
			c0.1,0.1,0.1,0.3,0.2,0.4c0,0.2,0,0.4,0,0.7V69.2z M29.1,69.2h-0.8v-0.5h0.8v-1.1l0.6-0.7h0.5v1.8h1.4v0.5h-1.4v3.7
			c0,0.7,0.3,1.1,0.8,1.1c0.2,0,0.4,0,0.5-0.1c0.1,0,0.3-0.1,0.4-0.2L32,74c-0.1,0-0.1,0.1-0.2,0.2c-0.1,0.1-0.2,0.1-0.3,0.2
			c-0.1,0-0.3,0.1-0.4,0.1c-0.2,0-0.3,0-0.5,0c-0.4,0-0.8-0.1-1-0.4c-0.3-0.2-0.4-0.6-0.4-1.2V69.2z M24.2,74.3h-1.1v-6.4
			c0-0.4,0-0.6-0.1-0.9c-0.1-0.2-0.3-0.3-0.7-0.3H22v-0.2h1.1c0.2,0,0.4,0,0.5,0.1c0.1,0,0.2,0.1,0.3,0.2c0.1,0.1,0.1,0.3,0.2,0.4
			c0,0.2,0,0.4,0,0.7V74.3z M20.6,71.3c0-0.7-0.1-1.2-0.3-1.6c-0.2-0.4-0.5-0.6-0.9-0.6c-0.2,0-0.3,0.1-0.5,0.2
			c-0.2,0.1-0.3,0.3-0.4,0.4c-0.1,0.2-0.2,0.4-0.3,0.7c-0.1,0.3-0.1,0.5-0.1,0.9H20.6z M21.7,71.7h-3.6c0,0.3,0,0.6,0.1,0.9
			c0.1,0.3,0.2,0.5,0.3,0.7c0.1,0.2,0.3,0.4,0.5,0.5c0.2,0.1,0.4,0.2,0.7,0.2c0.4,0,0.7-0.1,1-0.2c0.3-0.2,0.5-0.4,0.7-0.7l0.2,0.2
			c-0.3,0.5-0.6,0.8-0.9,1c-0.4,0.2-0.8,0.3-1.2,0.3c-0.4,0-0.8-0.1-1.1-0.2c-0.3-0.2-0.6-0.4-0.8-0.6c-0.2-0.3-0.4-0.6-0.5-0.9
			c-0.1-0.4-0.2-0.7-0.2-1.1c0-0.4,0.1-0.8,0.2-1.1c0.1-0.4,0.3-0.7,0.5-0.9c0.2-0.3,0.5-0.5,0.7-0.6c0.3-0.2,0.6-0.2,1-0.2
			c0.8,0,1.4,0.2,1.8,0.7c0.4,0.5,0.6,1.1,0.6,1.9L21.7,71.7z M14.8,71.3c0-0.7-0.1-1.2-0.3-1.6c-0.2-0.4-0.5-0.6-0.9-0.6
			c-0.2,0-0.3,0.1-0.5,0.2c-0.2,0.1-0.3,0.3-0.4,0.4c-0.1,0.2-0.2,0.4-0.3,0.7c-0.1,0.3-0.1,0.5-0.1,0.9H14.8z M15.9,71.7h-3.6
			c0,0.3,0,0.6,0.1,0.9c0.1,0.3,0.2,0.5,0.3,0.7c0.1,0.2,0.3,0.4,0.5,0.5c0.2,0.1,0.4,0.2,0.7,0.2c0.4,0,0.7-0.1,1-0.2
			c0.3-0.2,0.5-0.4,0.7-0.7l0.2,0.2c-0.3,0.5-0.6,0.8-0.9,1c-0.4,0.2-0.8,0.3-1.2,0.3c-0.4,0-0.8-0.1-1.1-0.2
			c-0.3-0.2-0.6-0.4-0.8-0.6c-0.2-0.3-0.4-0.6-0.5-0.9c-0.1-0.4-0.2-0.7-0.2-1.1c0-0.4,0.1-0.8,0.2-1.1c0.1-0.4,0.3-0.7,0.5-0.9
			c0.2-0.3,0.5-0.5,0.7-0.6c0.3-0.2,0.6-0.2,1-0.2c0.8,0,1.4,0.2,1.8,0.7c0.4,0.5,0.6,1.1,0.6,1.9L15.9,71.7z M9.8,66.5
			c0.2,0,0.4,0,0.5,0.1c0.1,0.1,0.2,0.1,0.3,0.2c0.1,0.1,0.1,0.2,0.2,0.3c0,0.1,0,0.2,0,0.3v0.9h-0.2c0-0.5-0.1-0.8-0.4-1
			C10,67.1,9.6,67,9.1,67H7.2v3.1h2.7v0.5H7.2v3.7H6.2v-6.4c0-0.4,0-0.6-0.1-0.9c-0.1-0.2-0.3-0.3-0.7-0.3H5.1v-0.2H9.8z"/>
		<path style="clip-path:url(#SVGID_00000146481621766881831390000003124618255709569156_);fill:#EC008C;" d="M31,38.3
			c0,0.6-0.2,1.1-0.5,1.4c-0.4,0.3-0.8,0.5-1.4,0.5c-0.7,0-1.2-0.3-1.7-0.8c-0.5-0.5-0.7-1.2-0.7-1.9c0-0.6,0.2-1.1,0.5-1.4
			c0.4-0.3,0.8-0.5,1.4-0.5c0.7,0,1.2,0.3,1.7,0.8C30.8,36.9,31,37.6,31,38.3"/>
		<path style="clip-path:url(#SVGID_00000146481621766881831390000003124618255709569156_);fill:#EC008C;" d="M72.1,38.3
			c0,0.6-0.2,1.1-0.5,1.4c-0.4,0.3-0.8,0.5-1.4,0.5c-0.7,0-1.2-0.3-1.7-0.8c-0.5-0.5-0.7-1.2-0.7-1.9c0-0.6,0.2-1.1,0.5-1.4
			c0.4-0.3,0.8-0.5,1.4-0.5c0.7,0,1.2,0.3,1.7,0.8C71.8,36.9,72.1,37.6,72.1,38.3"/>
		
			<path style="clip-path:url(#SVGID_00000146481621766881831390000003124618255709569156_);fill-rule:evenodd;clip-rule:evenodd;fill:#D2AB67;" d="
			M37.1,15.6c0,0-4.8,0.9-7.3,5c-2.5,4.1-3.5,6.5-3.5,6.5S34.8,34.7,37.1,15.6"/>
		
			<path style="clip-path:url(#SVGID_00000146481621766881831390000003124618255709569156_);fill-rule:evenodd;clip-rule:evenodd;fill:#D2AB67;" d="
			M30.1,17.5c0,0-5.7,1.6-6.4,4c-0.7,2.5,1.7,4.2,1.7,4.2S29.9,18.7,30.1,17.5"/>
		
			<path style="clip-path:url(#SVGID_00000146481621766881831390000003124618255709569156_);fill-rule:evenodd;clip-rule:evenodd;fill:#D2AB67;" d="
			M31.4,11.4c0,0-1.2,4.8-4.3,6.1C24,18.9,23,21,23,21l0.2-5.5C23.2,15.6,28.5,13.7,31.4,11.4"/>
		
			<path style="clip-path:url(#SVGID_00000146481621766881831390000003124618255709569156_);fill-rule:evenodd;clip-rule:evenodd;fill:#D2AB67;" d="
			M23.1,14.3c0.4-1.6,3.1-15.1,21.4-10.8c0,0-5.9,0.2-9,3C32.4,9.3,27.1,13.8,23.1,14.3"/>
		
			<path style="clip-path:url(#SVGID_00000146481621766881831390000003124618255709569156_);fill-rule:evenodd;clip-rule:evenodd;fill:#D2AB67;" d="
			M41.5,5.9c0,0-2.1,1.9-3.2,4.4c-1.1,2.5-4.3,6.7-7.4,6.2c0,0,1.1-5.6,5.3-9.1C36.2,7.5,40.1,4.8,41.5,5.9"/>
		
			<path style="clip-path:url(#SVGID_00000146481621766881831390000003124618255709569156_);fill-rule:evenodd;clip-rule:evenodd;fill:#D2AB67;" d="
			M42,5.7c0,0,1.9,1.5,2.2,3.7c0.4,2.2-0.3,4,0.1,4.6c0.4,0.6,2.2,3.9,2.2,3.9s0.1,0.5-1.1,0.7c0,0-0.7,0.7,0,1.1
			c0,0,0.5,0.6-0.1,0.7c-0.6,0.2-0.4,0.3-0.4,0.3s1.2,0.5,0.5,1.3c0,0-1,0.7-0.8,1.1c0.1,0.4,1.5,2.9-1.5,3.1
			c-3,0.1-4.3-0.1-4.5,0.6c-0.2,0.7-1.6,3.8-1,4.7c0.7,0.9,7.7,0.4,9.1-5.4c1.4-5.8,3.1-8.2,5.2-9.7l0.5-0.7c0,0-3.4-0.1-5.3,0.9
			C47.3,16.7,51.2,6.8,42,5.7"/>
		
			<path style="clip-path:url(#SVGID_00000146481621766881831390000003124618255709569156_);fill-rule:evenodd;clip-rule:evenodd;fill:#D2AB67;" d="
			M49.3,8c0,0,1.2,3.7,0.8,6.7c0,0,1.9,1.3,2.2-1.3C52.4,13.4,51.4,9.3,49.3,8"/>
		
			<path style="clip-path:url(#SVGID_00000146481621766881831390000003124618255709569156_);fill-rule:evenodd;clip-rule:evenodd;fill:#D2AB67;" d="
			M52.2,18.7c0,0-3.7,3.4-3.6,8.7C48.6,27.4,52.4,24.3,52.2,18.7"/>
	</g>
</g>
</svg>
